<svg width="4" height="7" viewBox="0 0 4 7" fill="none" xmlns="http://www.w3.org/2000/svg">
<path d="M0.167939 6.82735C0.0559794 6.71226 0 6.56577 0 6.38789C0 6.21001 0.0559794 6.06353 0.167939 5.94843L2.54962 3.5L0.167939 1.05157C0.0559794 0.936472 0 0.789985 0 0.612108C0 0.43423 0.0559794 0.287743 0.167939 0.172645C0.279898 0.0575483 0.422392 0 0.595419 0C0.768447 0 0.910942 0.0575483 1.0229 0.172645L3.83206 3.06054C3.89313 3.12332 3.93649 3.19133 3.96214 3.26457C3.98738 3.33782 4 3.41629 4 3.5C4 3.58371 3.98738 3.66218 3.96214 3.73543C3.93649 3.80867 3.89313 3.87668 3.83206 3.93946L1.0229 6.82735C0.910942 6.94245 0.768447 7 0.595419 7C0.422392 7 0.279898 6.94245 0.167939 6.82735Z" fill="black"/>
</svg>
