<svg width="4" height="7" viewBox="0 0 4 7" fill="none" xmlns="http://www.w3.org/2000/svg">
<path d="M2.9771 6.82735L0.167939 3.93946C0.10687 3.87668 0.0637148 3.80867 0.0384731 3.73543C0.0128243 3.66218 0 3.58371 0 3.5C0 3.41629 0.0128243 3.33782 0.0384731 3.26457C0.0637148 3.19133 0.10687 3.12332 0.167939 3.06054L2.9771 0.172645C3.08906 0.0575483 3.23155 0 3.40458 0C3.57761 0 3.7201 0.0575483 3.83206 0.172645C3.94402 0.287743 4 0.43423 4 0.612108C4 0.789985 3.94402 0.936472 3.83206 1.05157L1.45038 3.5L3.83206 5.94843C3.94402 6.06353 4 6.21001 4 6.38789C4 6.56577 3.94402 6.71226 3.83206 6.82735C3.7201 6.94245 3.57761 7 3.40458 7C3.23155 7 3.08906 6.94245 2.9771 6.82735Z" fill="black"/>
</svg>
