<svg width="9" height="9" viewBox="0 0 9 9" fill="none" xmlns="http://www.w3.org/2000/svg">
<path d="M4.5 4.5C3.88125 4.5 3.35156 4.27969 2.91094 3.83906C2.47031 3.39844 2.25 2.86875 2.25 2.25C2.25 1.63125 2.47031 1.10156 2.91094 0.660938C3.35156 0.220313 3.88125 0 4.5 0C5.11875 0 5.64844 0.220313 6.08906 0.660938C6.52969 1.10156 6.75 1.63125 6.75 2.25C6.75 2.86875 6.52969 3.39844 6.08906 3.83906C5.64844 4.27969 5.11875 4.5 4.5 4.5ZM1.125 9C0.815625 9 0.550875 8.88994 0.33075 8.66981C0.11025 8.44931 0 8.18438 0 7.875V7.425C0 7.10625 0.0821251 6.81319 0.246375 6.54581C0.41025 6.27881 0.628125 6.075 0.9 5.93438C1.48125 5.64375 2.07187 5.42569 2.67188 5.28019C3.27188 5.13506 3.88125 5.0625 4.5 5.0625C5.11875 5.0625 5.72812 5.13506 6.32812 5.28019C6.92813 5.42569 7.51875 5.64375 8.1 5.93438C8.37187 6.075 8.58975 6.27881 8.75363 6.54581C8.91788 6.81319 9 7.10625 9 7.425V7.875C9 8.18438 8.88994 8.44931 8.66981 8.66981C8.44931 8.88994 8.18438 9 7.875 9H1.125Z" fill="#807B7B"/>
</svg>
